<svg xmlns="http://www.w3.org/2000/svg" xmlns:xlink="http://www.w3.org/1999/xlink" contentStyleType="text/css" data-diagram-type="ACTIVITY" height="1130px" preserveAspectRatio="none" style="width:668px;height:1130px;background:#FFFFFF;" version="1.1" viewBox="0 0 668 1130" width="668px" zoomAndPan="magnify"><title>&#1057;&#1090;&#1074;&#1086;&#1088;&#1077;&#1085;&#1085;&#1103; &#1089;&#1087;&#1077;&#1094;&#1080;&#1092;&#1110;&#1082;&#1072;&#1094;&#1110;&#1111; &#1075;&#1086;&#1090;&#1086;&#1074;&#1086;&#1111; &#1087;&#1088;&#1086;&#1076;&#1091;&#1082;&#1094;&#1110;&#1111;</title><defs/><g><g class="title" data-source-line="1"><text fill="#000000" font-family="sans-serif" font-size="14" font-weight="bold" lengthAdjust="spacing" textLength="341.7695" x="161.9968" y="32.9951">&#1057;&#1090;&#1074;&#1086;&#1088;&#1077;&#1085;&#1085;&#1103; &#1089;&#1087;&#1077;&#1094;&#1080;&#1092;&#1110;&#1082;&#1072;&#1094;&#1110;&#1111; &#1075;&#1086;&#1090;&#1086;&#1074;&#1086;&#1111; &#1087;&#1088;&#1086;&#1076;&#1091;&#1082;&#1094;&#1110;&#1111;</text></g><rect fill="none" height="20.9531" style="stroke:none;stroke-width:1;" width="635.7632" x="15" y="50.042"/><ellipse cx="175.5098" cy="85.9951" fill="#222222" rx="10" ry="10" style="stroke:#222222;stroke-width:1;"/><rect fill="#F1F1F1" height="33.9688" rx="12.5" ry="12.5" style="stroke:#181818;stroke-width:0.5;" width="136.6016" x="107.209" y="115.9951"/><text fill="#000000" font-family="sans-serif" font-size="12" lengthAdjust="spacing" textLength="116.6016" x="117.209" y="137.1338">&#1042;&#1110;&#1076;&#1082;&#1088;&#1080;&#1090;&#1090;&#1090;&#1103; &#1092;&#1086;&#1088;&#1084;&#1080;</text><rect fill="#F1F1F1" height="33.9688" rx="12.5" ry="12.5" style="stroke:#181818;stroke-width:0.5;" width="123.4883" x="113.7656" y="169.9639"/><text fill="#000000" font-family="sans-serif" font-size="12" lengthAdjust="spacing" textLength="103.4883" x="123.7656" y="191.1025">&#1042;&#1074;&#1077;&#1076;&#1077;&#1085;&#1085;&#1103; &#1076;&#1072;&#1085;&#1080;&#1093;</text><rect fill="#F1F1F1" height="33.9688" rx="12.5" ry="12.5" style="stroke:#181818;stroke-width:0.5;" width="198.1367" x="76.4414" y="223.9326"/><text fill="#000000" font-family="sans-serif" font-size="12" lengthAdjust="spacing" textLength="178.1367" x="86.4414" y="245.0713">&#1042;&#1110;&#1076;&#1087;&#1088;&#1072;&#1074;&#1082;&#1072; &#1079;&#1072;&#1087;&#1080;&#1090;&#1091; &#1085;&#1072; &#1089;&#1077;&#1088;&#1074;&#1077;&#1088;</text><rect fill="#F1F1F1" height="33.9688" rx="12.5" ry="12.5" style="stroke:#181818;stroke-width:0.5;" width="247.5898" x="51.7148" y="434.2412"/><text fill="#000000" font-family="sans-serif" font-size="12" lengthAdjust="spacing" textLength="227.5898" x="61.7148" y="455.3799">&#1055;&#1086;&#1082;&#1072;&#1079;&#1091;&#1108; &#1087;&#1086;&#1074;&#1110;&#1076;&#1086;&#1084;&#1083;&#1077;&#1085;&#1085;&#1103; &#1087;&#1088;&#1086; &#1087;&#1086;&#1084;&#1080;&#1083;&#1082;&#1091;</text><ellipse cx="175.5098" cy="499.21" fill="none" rx="11" ry="11" style="stroke:#222222;stroke-width:1;"/><ellipse cx="175.5098" cy="499.21" fill="#222222" rx="6" ry="6" style="stroke:#222222;stroke-width:1;"/><rect fill="#F1F1F1" height="33.9688" rx="12.5" ry="12.5" style="stroke:#181818;stroke-width:0.5;" width="247.5898" x="51.7148" y="654.5811"/><text fill="#000000" font-family="sans-serif" font-size="12" lengthAdjust="spacing" textLength="227.5898" x="61.7148" y="675.7197">&#1055;&#1086;&#1082;&#1072;&#1079;&#1091;&#1108; &#1087;&#1086;&#1074;&#1110;&#1076;&#1086;&#1084;&#1083;&#1077;&#1085;&#1085;&#1103; &#1087;&#1088;&#1086; &#1087;&#1086;&#1084;&#1080;&#1083;&#1082;&#1091;</text><ellipse cx="175.5098" cy="719.5498" fill="none" rx="11" ry="11" style="stroke:#222222;stroke-width:1;"/><ellipse cx="175.5098" cy="719.5498" fill="#222222" rx="6" ry="6" style="stroke:#222222;stroke-width:1;"/><rect fill="#F1F1F1" height="33.9688" rx="12.5" ry="12.5" style="stroke:#181818;stroke-width:0.5;" width="124.7949" x="113.1123" y="988.4248"/><text fill="#000000" font-family="sans-serif" font-size="12" lengthAdjust="spacing" textLength="104.7949" x="123.1123" y="1009.5635">&#1047;&#1072;&#1082;&#1088;&#1080;&#1090;&#1090;&#1103; &#1092;&#1086;&#1088;&#1084;&#1080;</text><rect fill="#F1F1F1" height="33.9688" rx="12.5" ry="12.5" style="stroke:#181818;stroke-width:0.5;" width="309.0195" x="21" y="1042.3936"/><text fill="#000000" font-family="sans-serif" font-size="12" lengthAdjust="spacing" textLength="289.0195" x="31" y="1063.5322">&#1054;&#1085;&#1086;&#1074;&#1083;&#1077;&#1085;&#1085;&#1103; &#1089;&#1087;&#1080;&#1089;&#1082;&#1091; &#1089;&#1087;&#1077;&#1094;&#1080;&#1092;&#1110;&#1082;&#1072;&#1094;&#1110;&#1081; &#1074; &#1110;&#1085;&#1090;&#1077;&#1088;&#1092;&#1077;&#1081;&#1089;&#1110;</text><ellipse cx="175.5098" cy="1107.3623" fill="none" rx="11" ry="11" style="stroke:#222222;stroke-width:1;"/><ellipse cx="175.5098" cy="1107.3623" fill="#222222" rx="6" ry="6" style="stroke:#222222;stroke-width:1;"/><line style="stroke:#000000;stroke-width:1.5;" x1="15" x2="15" y1="50.042" y2="1118.3623"/><rect fill="#F1F1F1" height="33.9688" rx="12.5" ry="12.5" style="stroke:#181818;stroke-width:0.5;" width="179.3809" x="402.7705" y="277.9014"/><text fill="#000000" font-family="sans-serif" font-size="12" lengthAdjust="spacing" textLength="159.3809" x="412.7705" y="299.04">&#1055;&#1077;&#1088;&#1077;&#1074;&#1110;&#1088;&#1103;&#1108; &#1087;&#1088;&#1072;&#1074;&#1072; &#1076;&#1086;&#1089;&#1090;&#1091;&#1087;&#1091;</text><rect fill="#F1F1F1" height="33.9688" rx="12.5" ry="12.5" style="stroke:#181818;stroke-width:0.5;" width="163.959" x="410.4814" y="380.2725"/><text fill="#000000" font-family="sans-serif" font-size="12" lengthAdjust="spacing" textLength="143.959" x="420.4814" y="401.4111">&#1055;&#1086;&#1074;&#1077;&#1088;&#1090;&#1072;&#1108; &#1087;&#1086;&#1084;&#1080;&#1083;&#1082;&#1091; 403</text><polygon fill="#F1F1F1" points="467.1658,331.8701,517.7561,331.8701,529.7561,343.8701,517.7561,355.8701,467.1658,355.8701,455.1658,343.8701,467.1658,331.8701" style="stroke:#181818;stroke-width:0.5;"/><text fill="#000000" font-family="sans-serif" font-size="11" lengthAdjust="spacing" textLength="10.248" x="496.4609" y="366.0806">&#1085;&#1110;</text><text fill="#000000" font-family="sans-serif" font-size="11" lengthAdjust="spacing" textLength="50.5903" x="467.1658" y="347.6782">&#1055;&#1088;&#1072;&#1074;&#1072; &#1108;?</text><text fill="#000000" font-family="sans-serif" font-size="11" lengthAdjust="spacing" textLength="19.7925" x="529.7561" y="341.2759">&#1090;&#1072;&#1082;</text><rect fill="#F1F1F1" height="33.9688" rx="12.5" ry="12.5" style="stroke:#181818;stroke-width:0.5;" width="163.959" x="410.4814" y="600.6123"/><text fill="#000000" font-family="sans-serif" font-size="12" lengthAdjust="spacing" textLength="143.959" x="420.4814" y="621.751">&#1055;&#1086;&#1074;&#1077;&#1088;&#1090;&#1072;&#1108; &#1087;&#1086;&#1084;&#1080;&#1083;&#1082;&#1091; 400</text><polygon fill="#F1F1F1" points="452.6719,552.21,532.25,552.21,544.25,564.21,532.25,576.21,452.6719,576.21,440.6719,564.21,452.6719,552.21" style="stroke:#181818;stroke-width:0.5;"/><text fill="#000000" font-family="sans-serif" font-size="11" lengthAdjust="spacing" textLength="10.248" x="496.4609" y="586.4204">&#1085;&#1110;</text><text fill="#000000" font-family="sans-serif" font-size="11" lengthAdjust="spacing" textLength="79.5781" x="452.6719" y="568.0181">&#1044;&#1072;&#1085;&#1110; &#1074;&#1072;&#1083;&#1110;&#1076;&#1085;&#1110; ?</text><text fill="#000000" font-family="sans-serif" font-size="11" lengthAdjust="spacing" textLength="19.7925" x="544.25" y="561.6157">&#1090;&#1072;&#1082;</text><rect fill="#F1F1F1" height="33.9688" rx="12.5" ry="12.5" style="stroke:#181818;stroke-width:0.5;" width="172.6484" x="406.1367" y="772.5498"/><text fill="#000000" font-family="sans-serif" font-size="12" lengthAdjust="spacing" textLength="152.6484" x="416.1367" y="793.6885">&#1056;&#1086;&#1079;&#1088;&#1072;&#1093;&#1086;&#1074;&#1091;&#1108; &#1089;&#1086;&#1073;&#1110;&#1074;&#1072;&#1088;&#1090;&#1110;&#1089;&#1090;&#1100;</text><rect fill="#F1F1F1" height="33.9688" rx="12.5" ry="12.5" style="stroke:#181818;stroke-width:0.5;" width="223.2383" x="380.8418" y="826.5186"/><text fill="#000000" font-family="sans-serif" font-size="12" lengthAdjust="spacing" textLength="203.2383" x="390.8418" y="847.6572">&#1057;&#1090;&#1074;&#1086;&#1088;&#1077;&#1085;&#1085;&#1103; ORM-&#1086;&#1073;&#8217;&#1108;&#1082;&#1090;&#1072; &#1090;&#1072;&#1073;&#1083;&#1080;&#1094;&#1110;</text><rect fill="#F1F1F1" height="33.9688" rx="12.5" ry="12.5" style="stroke:#181818;stroke-width:0.5;" width="139.7363" x="422.5928" y="880.4873"/><text fill="#000000" font-family="sans-serif" font-size="12" lengthAdjust="spacing" textLength="119.7363" x="432.5928" y="901.626">&#1044;&#1086;&#1076;&#1072;&#1074;&#1072;&#1085;&#1085;&#1103; &#1086;&#1073;'&#1108;&#1082;&#1090;&#1072;</text><rect fill="#F1F1F1" height="33.9688" rx="12.5" ry="12.5" style="stroke:#181818;stroke-width:0.5;" width="304.8828" x="340.0195" y="934.4561"/><text fill="#000000" font-family="sans-serif" font-size="12" lengthAdjust="spacing" textLength="284.8828" x="350.0195" y="955.5947">&#1060;&#1086;&#1088;&#1084;&#1091;&#1108; &#1088;&#1077;&#1079;&#1091;&#1083;&#1100;&#1090;&#1072;&#1090; &#1089;&#1090;&#1074;&#1086;&#1088;&#1077;&#1085;&#1085;&#1103; &#1079; &#1089;&#1090;&#1072;&#1090;&#1091;&#1089;&#1086;&#1084; 201</text><line style="stroke:#000000;stroke-width:1.5;" x1="334.0195" x2="334.0195" y1="50.042" y2="1118.3623"/><line style="stroke:#000000;stroke-width:1.5;" x1="648.9023" x2="648.9023" y1="50.042" y2="1118.3623"/><line style="stroke:#181818;stroke-width:1;" x1="175.5098" x2="175.5098" y1="95.9951" y2="115.9951"/><polygon fill="#181818" points="171.5098,105.9951,175.5098,115.9951,179.5098,105.9951,175.5098,109.9951" style="stroke:#181818;stroke-width:1;"/><line style="stroke:#181818;stroke-width:1;" x1="175.5098" x2="175.5098" y1="149.9639" y2="169.9639"/><polygon fill="#181818" points="171.5098,159.9639,175.5098,169.9639,179.5098,159.9639,175.5098,163.9639" style="stroke:#181818;stroke-width:1;"/><line style="stroke:#181818;stroke-width:1;" x1="175.5098" x2="175.5098" y1="203.9326" y2="223.9326"/><polygon fill="#181818" points="171.5098,213.9326,175.5098,223.9326,179.5098,213.9326,175.5098,217.9326" style="stroke:#181818;stroke-width:1;"/><line style="stroke:#181818;stroke-width:1;" x1="175.5098" x2="175.5098" y1="468.21" y2="488.21"/><polygon fill="#181818" points="171.5098,478.21,175.5098,488.21,179.5098,478.21,175.5098,482.21" style="stroke:#181818;stroke-width:1;"/><line style="stroke:#181818;stroke-width:1;" x1="175.5098" x2="175.5098" y1="688.5498" y2="708.5498"/><polygon fill="#181818" points="171.5098,698.5498,175.5098,708.5498,179.5098,698.5498,175.5098,702.5498" style="stroke:#181818;stroke-width:1;"/><line style="stroke:#181818;stroke-width:1;" x1="175.5098" x2="175.5098" y1="1022.3936" y2="1042.3936"/><polygon fill="#181818" points="171.5098,1032.3936,175.5098,1042.3936,179.5098,1032.3936,175.5098,1036.3936" style="stroke:#181818;stroke-width:1;"/><line style="stroke:#181818;stroke-width:1;" x1="175.5098" x2="175.5098" y1="1076.3623" y2="1096.3623"/><polygon fill="#181818" points="171.5098,1086.3623,175.5098,1096.3623,179.5098,1086.3623,175.5098,1090.3623" style="stroke:#181818;stroke-width:1;"/><line style="stroke:#181818;stroke-width:1;" x1="492.4609" x2="492.4609" y1="355.8701" y2="380.2725"/><polygon fill="#181818" points="488.4609,370.2725,492.4609,380.2725,496.4609,370.2725,492.4609,374.2725" style="stroke:#181818;stroke-width:1;"/><line style="stroke:#181818;stroke-width:1;" x1="529.7561" x2="626.2559" y1="343.8701" y2="343.8701"/><polygon fill="#181818" points="622.2559,432.2412,626.2559,442.2412,630.2559,432.2412,626.2559,436.2412" style="stroke:#181818;stroke-width:1;"/><line style="stroke:#181818;stroke-width:1;" x1="626.2559" x2="626.2559" y1="343.8701" y2="532.21"/><line style="stroke:#181818;stroke-width:1;" x1="626.2559" x2="492.4609" y1="532.21" y2="532.21"/><line style="stroke:#181818;stroke-width:1;" x1="492.4609" x2="492.4609" y1="532.21" y2="552.21"/><polygon fill="#181818" points="488.4609,542.21,492.4609,552.21,496.4609,542.21,492.4609,546.21" style="stroke:#181818;stroke-width:1;"/><line style="stroke:#181818;stroke-width:1;" x1="492.4609" x2="492.4609" y1="311.8701" y2="331.8701"/><polygon fill="#181818" points="488.4609,321.8701,492.4609,331.8701,496.4609,321.8701,492.4609,325.8701" style="stroke:#181818;stroke-width:1;"/><line style="stroke:#181818;stroke-width:1;" x1="492.4609" x2="492.4609" y1="576.21" y2="600.6123"/><polygon fill="#181818" points="488.4609,590.6123,492.4609,600.6123,496.4609,590.6123,492.4609,594.6123" style="stroke:#181818;stroke-width:1;"/><line style="stroke:#181818;stroke-width:1;" x1="544.25" x2="626.2559" y1="564.21" y2="564.21"/><polygon fill="#181818" points="622.2559,652.5811,626.2559,662.5811,630.2559,652.5811,626.2559,656.5811" style="stroke:#181818;stroke-width:1;"/><line style="stroke:#181818;stroke-width:1;" x1="626.2559" x2="626.2559" y1="564.21" y2="752.5498"/><line style="stroke:#181818;stroke-width:1;" x1="626.2559" x2="492.4609" y1="752.5498" y2="752.5498"/><line style="stroke:#181818;stroke-width:1;" x1="492.4609" x2="492.4609" y1="752.5498" y2="772.5498"/><polygon fill="#181818" points="488.4609,762.5498,492.4609,772.5498,496.4609,762.5498,492.4609,766.5498" style="stroke:#181818;stroke-width:1;"/><line style="stroke:#181818;stroke-width:1;" x1="492.4609" x2="492.4609" y1="806.5186" y2="826.5186"/><polygon fill="#181818" points="488.4609,816.5186,492.4609,826.5186,496.4609,816.5186,492.4609,820.5186" style="stroke:#181818;stroke-width:1;"/><line style="stroke:#181818;stroke-width:1;" x1="492.4609" x2="492.4609" y1="860.4873" y2="880.4873"/><polygon fill="#181818" points="488.4609,870.4873,492.4609,880.4873,496.4609,870.4873,492.4609,874.4873" style="stroke:#181818;stroke-width:1;"/><line style="stroke:#181818;stroke-width:1;" x1="492.4609" x2="492.4609" y1="914.4561" y2="934.4561"/><polygon fill="#181818" points="488.4609,924.4561,492.4609,934.4561,496.4609,924.4561,492.4609,928.4561" style="stroke:#181818;stroke-width:1;"/><line style="stroke:#181818;stroke-width:1;" x1="175.5098" x2="175.5098" y1="257.9014" y2="262.9014"/><line style="stroke:#181818;stroke-width:1;" x1="175.5098" x2="492.4609" y1="262.9014" y2="262.9014"/><line style="stroke:#181818;stroke-width:1;" x1="492.4609" x2="492.4609" y1="262.9014" y2="277.9014"/><polygon fill="#181818" points="488.4609,267.9014,492.4609,277.9014,496.4609,267.9014,492.4609,271.9014" style="stroke:#181818;stroke-width:1;"/><line style="stroke:#181818;stroke-width:1;" x1="492.4609" x2="492.4609" y1="414.2412" y2="419.2412"/><line style="stroke:#181818;stroke-width:1;" x1="492.4609" x2="175.5098" y1="419.2412" y2="419.2412"/><line style="stroke:#181818;stroke-width:1;" x1="175.5098" x2="175.5098" y1="419.2412" y2="434.2412"/><polygon fill="#181818" points="171.5098,424.2412,175.5098,434.2412,179.5098,424.2412,175.5098,428.2412" style="stroke:#181818;stroke-width:1;"/><line style="stroke:#181818;stroke-width:1;" x1="492.4609" x2="492.4609" y1="634.5811" y2="639.5811"/><line style="stroke:#181818;stroke-width:1;" x1="492.4609" x2="175.5098" y1="639.5811" y2="639.5811"/><line style="stroke:#181818;stroke-width:1;" x1="175.5098" x2="175.5098" y1="639.5811" y2="654.5811"/><polygon fill="#181818" points="171.5098,644.5811,175.5098,654.5811,179.5098,644.5811,175.5098,648.5811" style="stroke:#181818;stroke-width:1;"/><line style="stroke:#181818;stroke-width:1;" x1="492.4609" x2="492.4609" y1="968.4248" y2="973.4248"/><line style="stroke:#181818;stroke-width:1;" x1="492.4609" x2="175.5098" y1="973.4248" y2="973.4248"/><line style="stroke:#181818;stroke-width:1;" x1="175.5098" x2="175.5098" y1="973.4248" y2="988.4248"/><polygon fill="#181818" points="171.5098,978.4248,175.5098,988.4248,179.5098,978.4248,175.5098,982.4248" style="stroke:#181818;stroke-width:1;"/><text fill="#000000" font-family="sans-serif" font-size="18" lengthAdjust="spacing" textLength="132.3369" x="108.3413" y="66.75">&#1042;&#1077;&#1073;&#1110;&#1085;&#1090;&#1077;&#1088;&#1092;&#1077;&#1081;&#1089;</text><text fill="#000000" font-family="sans-serif" font-size="18" lengthAdjust="spacing" textLength="141.583" x="420.6694" y="66.75">&#1041;&#1077;&#1082;&#1077;&#1085;&#1076;-&#1089;&#1077;&#1088;&#1074;&#1077;&#1088;</text><!--SRC=[pLHBIiDG59rd5M-c7GZrCse6ha04To2OOa5KR8OTf4dhg21Ag3Zn0ouWreR6rgPRk7SBhiHpNaZLAXKSIQ7alTnxFlSJl-4VUKOUD9I1v1f8AbEPweNHjimarNF9jADz6KkYvzhNQoFFY0ibj_4upf2Kor0Z6HSHZjEIA-0y8MsAo5G3xU3yeksMq_Jtptod9bTuEKH60FpG_a3PiGfU9NCP0O8KCQKWF2PupBJhplF9dI0EweoCy3YpS951O48Bu2QC1YvLNG9iR067QvzVjW1uPu-f360Xq0kDpHmz8NUkRIBZCW9MesvMvMx-NkFjYl4FlMFSJhLVSOmXObx0emQ9nSC5pCa4lYEpLTrq4RUaLYK8tCb8en9YOAqJQl9H7Dk51Gh2D_sJKySxQdfcbJ9aN76yuuD6VNavhBsOzTQ-eKEPM58U_-Aq-c-TrkGUG2DsKhkMako8oQrIMAShp0Ixt-FaVL-LtRsTDSQ_1JSQGqx8YQ249wZBk1JCYxabnRoKLf2pKcRyEg2FnN8K-aYEGg4jFLlpq53WWYuP5RS91zTQUZKRrNLtwOBMv9h5co_cubhU0fpTddpzKcJuPwz__cp82wR8VATZPHmsxXq0]--></g></svg>