<svg xmlns="http://www.w3.org/2000/svg" xmlns:xlink="http://www.w3.org/1999/xlink" contentStyleType="text/css" data-diagram-type="ACTIVITY" height="1438px" preserveAspectRatio="none" style="width:620px;height:1438px;background:#FFFFFF;" version="1.1" viewBox="0 0 620 1438" width="620px" zoomAndPan="magnify"><title>&#1055;&#1088;&#1086;&#1074;&#1077;&#1076;&#1077;&#1085;&#1085;&#1103; &#1072;&#1082;&#1090;&#1091; &#1110;&#1085;&#1074;&#1077;&#1085;&#1090;&#1072;&#1088;&#1080;&#1079;&#1072;&#1094;&#1110;&#1111;</title><defs/><g><g class="title" data-source-line="1"><text fill="#000000" font-family="sans-serif" font-size="14" font-weight="bold" lengthAdjust="spacing" textLength="262.2334" x="177.4724" y="32.9951">&#1055;&#1088;&#1086;&#1074;&#1077;&#1076;&#1077;&#1085;&#1085;&#1103; &#1072;&#1082;&#1090;&#1091; &#1110;&#1085;&#1074;&#1077;&#1085;&#1090;&#1072;&#1088;&#1080;&#1079;&#1072;&#1094;&#1110;&#1111;</text></g><rect fill="none" height="20.9531" style="stroke:none;stroke-width:1;" width="587.1782" x="15" y="50.042"/><ellipse cx="154.9844" cy="85.9951" fill="#222222" rx="10" ry="10" style="stroke:#222222;stroke-width:1;"/><rect fill="#F1F1F1" height="33.9688" rx="12.5" ry="12.5" style="stroke:#181818;stroke-width:0.5;" width="206.9199" x="51.5244" y="115.9951"/><text fill="#000000" font-family="sans-serif" font-size="12" lengthAdjust="spacing" textLength="186.9199" x="61.5244" y="137.1338">&#1050;&#1086;&#1088;&#1080;&#1089;&#1090;&#1091;&#1074;&#1072;&#1095; &#1074;&#1110;&#1076;&#1082;&#1088;&#1080;&#1074;&#1072;&#1108; &#1089;&#1087;&#1080;&#1089;&#1086;&#1082;</text><rect fill="#F1F1F1" height="33.9688" rx="12.5" ry="12.5" style="stroke:#181818;stroke-width:0.5;" width="267.9688" x="21" y="169.9639"/><text fill="#000000" font-family="sans-serif" font-size="12" lengthAdjust="spacing" textLength="247.9688" x="31" y="191.1025">&#1053;&#1072;&#1090;&#1080;&#1089;&#1082;&#1072;&#1108; &#1082;&#1085;&#1086;&#1087;&#1082;&#1091; "&#1055;&#1088;&#1086;&#1074;&#1077;&#1089;&#1090;&#1080;" &#1087;&#1086; &#1079;&#1072;&#1087;&#1080;&#1089;&#1091;</text><rect fill="#F1F1F1" height="33.9688" rx="12.5" ry="12.5" style="stroke:#181818;stroke-width:0.5;" width="197.9082" x="56.0303" y="223.9326"/><text fill="#000000" font-family="sans-serif" font-size="12" lengthAdjust="spacing" textLength="177.9082" x="66.0303" y="245.0713">&#1042;&#1110;&#1076;&#1087;&#1088;&#1072;&#1074;&#1083;&#1103;&#1108; &#1079;&#1072;&#1087;&#1080;&#1090; &#1085;&#1072; &#1089;&#1077;&#1088;&#1074;&#1077;&#1088;</text><rect fill="#F1F1F1" height="33.9688" rx="12.5" ry="12.5" style="stroke:#181818;stroke-width:0.5;" width="247.5898" x="31.1895" y="434.2412"/><text fill="#000000" font-family="sans-serif" font-size="12" lengthAdjust="spacing" textLength="227.5898" x="41.1895" y="455.3799">&#1055;&#1086;&#1082;&#1072;&#1079;&#1091;&#1108; &#1087;&#1086;&#1074;&#1110;&#1076;&#1086;&#1084;&#1083;&#1077;&#1085;&#1085;&#1103; &#1087;&#1088;&#1086; &#1087;&#1086;&#1084;&#1080;&#1083;&#1082;&#1091;</text><ellipse cx="154.9844" cy="499.21" fill="none" rx="11" ry="11" style="stroke:#222222;stroke-width:1;"/><ellipse cx="154.9844" cy="499.21" fill="#222222" rx="6" ry="6" style="stroke:#222222;stroke-width:1;"/><rect fill="#F1F1F1" height="33.9688" rx="12.5" ry="12.5" style="stroke:#181818;stroke-width:0.5;" width="247.5898" x="31.1895" y="708.5498"/><text fill="#000000" font-family="sans-serif" font-size="12" lengthAdjust="spacing" textLength="227.5898" x="41.1895" y="729.6885">&#1055;&#1086;&#1082;&#1072;&#1079;&#1091;&#1108; &#1087;&#1086;&#1074;&#1110;&#1076;&#1086;&#1084;&#1083;&#1077;&#1085;&#1085;&#1103; &#1087;&#1088;&#1086; &#1087;&#1086;&#1084;&#1080;&#1083;&#1082;&#1091;</text><ellipse cx="154.9844" cy="773.5186" fill="none" rx="11" ry="11" style="stroke:#222222;stroke-width:1;"/><ellipse cx="154.9844" cy="773.5186" fill="#222222" rx="6" ry="6" style="stroke:#222222;stroke-width:1;"/><rect fill="#F1F1F1" height="33.9688" rx="12.5" ry="12.5" style="stroke:#181818;stroke-width:0.5;" width="225.5117" x="42.2285" y="1296.7021"/><text fill="#000000" font-family="sans-serif" font-size="12" lengthAdjust="spacing" textLength="205.5117" x="52.2285" y="1317.8408">&#1055;&#1086;&#1082;&#1072;&#1079;&#1091;&#1108; &#1087;&#1086;&#1074;&#1110;&#1076;&#1086;&#1084;&#1083;&#1077;&#1085;&#1085;&#1103; &#1087;&#1088;&#1086; &#1091;&#1089;&#1087;&#1110;&#1093;</text><rect fill="#F1F1F1" height="33.9688" rx="12.5" ry="12.5" style="stroke:#181818;stroke-width:0.5;" width="170.3164" x="69.8262" y="1350.6709"/><text fill="#000000" font-family="sans-serif" font-size="12" lengthAdjust="spacing" textLength="150.3164" x="79.8262" y="1371.8096">&#1054;&#1085;&#1086;&#1074;&#1083;&#1102;&#1108; &#1076;&#1072;&#1085;&#1110; &#1085;&#1072; &#1077;&#1082;&#1088;&#1072;&#1085;&#1110;</text><ellipse cx="154.9844" cy="1415.6396" fill="none" rx="11" ry="11" style="stroke:#222222;stroke-width:1;"/><ellipse cx="154.9844" cy="1415.6396" fill="#222222" rx="6" ry="6" style="stroke:#222222;stroke-width:1;"/><line style="stroke:#000000;stroke-width:1.5;" x1="15" x2="15" y1="50.042" y2="1426.6396"/><rect fill="#F1F1F1" height="33.9688" rx="12.5" ry="12.5" style="stroke:#181818;stroke-width:0.5;" width="179.3809" x="357.832" y="277.9014"/><text fill="#000000" font-family="sans-serif" font-size="12" lengthAdjust="spacing" textLength="159.3809" x="367.832" y="299.04">&#1055;&#1077;&#1088;&#1077;&#1074;&#1110;&#1088;&#1103;&#1108; &#1087;&#1088;&#1072;&#1074;&#1072; &#1076;&#1086;&#1089;&#1090;&#1091;&#1087;&#1091;</text><rect fill="#F1F1F1" height="33.9688" rx="12.5" ry="12.5" style="stroke:#181818;stroke-width:0.5;" width="163.959" x="365.543" y="380.2725"/><text fill="#000000" font-family="sans-serif" font-size="12" lengthAdjust="spacing" textLength="143.959" x="375.543" y="401.4111">&#1055;&#1086;&#1074;&#1077;&#1088;&#1090;&#1072;&#1108; &#1087;&#1086;&#1084;&#1080;&#1083;&#1082;&#1091; 403</text><polygon fill="#F1F1F1" points="422.2273,331.8701,472.8176,331.8701,484.8176,343.8701,472.8176,355.8701,422.2273,355.8701,410.2273,343.8701,422.2273,331.8701" style="stroke:#181818;stroke-width:0.5;"/><text fill="#000000" font-family="sans-serif" font-size="11" lengthAdjust="spacing" textLength="10.248" x="451.5225" y="366.0806">&#1085;&#1110;</text><text fill="#000000" font-family="sans-serif" font-size="11" lengthAdjust="spacing" textLength="50.5903" x="422.2273" y="347.6782">&#1055;&#1088;&#1072;&#1074;&#1072; &#1108;?</text><text fill="#000000" font-family="sans-serif" font-size="11" lengthAdjust="spacing" textLength="19.7925" x="484.8176" y="341.2759">&#1090;&#1072;&#1082;</text><rect fill="#F1F1F1" height="33.9688" rx="12.5" ry="12.5" style="stroke:#181818;stroke-width:0.5;" width="201.1074" x="346.9688" y="552.21"/><text fill="#000000" font-family="sans-serif" font-size="12" lengthAdjust="spacing" textLength="181.1074" x="356.9688" y="573.3486">&#1055;&#1077;&#1088;&#1077;&#1074;&#1110;&#1088;&#1103;&#1108; &#1089;&#1090;&#1072;&#1090;&#1091;&#1089; &#1076;&#1086;&#1082;&#1091;&#1084;&#1077;&#1085;&#1090;&#1072;</text><rect fill="#F1F1F1" height="33.9688" rx="12.5" ry="12.5" style="stroke:#181818;stroke-width:0.5;" width="163.959" x="365.543" y="654.5811"/><text fill="#000000" font-family="sans-serif" font-size="12" lengthAdjust="spacing" textLength="143.959" x="375.543" y="675.7197">&#1055;&#1086;&#1074;&#1077;&#1088;&#1090;&#1072;&#1108; &#1087;&#1086;&#1084;&#1080;&#1083;&#1082;&#1091; 400</text><polygon fill="#F1F1F1" points="370.5466,606.1787,524.4983,606.1787,536.4983,618.1787,524.4983,630.1787,370.5466,630.1787,358.5466,618.1787,370.5466,606.1787" style="stroke:#181818;stroke-width:0.5;"/><text fill="#000000" font-family="sans-serif" font-size="11" lengthAdjust="spacing" textLength="10.248" x="451.5225" y="640.3892">&#1085;&#1110;</text><text fill="#000000" font-family="sans-serif" font-size="11" lengthAdjust="spacing" textLength="153.9517" x="370.5466" y="621.9868">&#1044;&#1086;&#1082;&#1091;&#1084;&#1077;&#1085;&#1090; &#1085;&#1077; &#1087;&#1088;&#1086;&#1074;&#1077;&#1076;&#1077;&#1085;&#1080;&#1081;?</text><text fill="#000000" font-family="sans-serif" font-size="11" lengthAdjust="spacing" textLength="19.7925" x="536.4983" y="615.5845">&#1090;&#1072;&#1082;</text><rect fill="#F1F1F1" height="33.9688" rx="12.5" ry="12.5" style="stroke:#181818;stroke-width:0.5;" width="238.0742" x="328.4854" y="826.5186"/><text fill="#000000" font-family="sans-serif" font-size="12" lengthAdjust="spacing" textLength="218.0742" x="338.4854" y="847.6572">&#1054;&#1090;&#1088;&#1080;&#1084;&#1091;&#1108; &#1092;&#1072;&#1082;&#1090;&#1080;&#1095;&#1085;&#1110; &#1079;&#1072;&#1083;&#1080;&#1096;&#1082;&#1080; &#1079; &#1072;&#1082;&#1090;&#1091;</text><rect fill="#F1F1F1" height="33.9688" rx="12.5" ry="12.5" style="stroke:#181818;stroke-width:0.5;" width="249.8047" x="322.6201" y="880.4873"/><text fill="#000000" font-family="sans-serif" font-size="12" lengthAdjust="spacing" textLength="229.8047" x="332.6201" y="901.626">&#1054;&#1090;&#1088;&#1080;&#1084;&#1091;&#1108; &#1086;&#1073;&#1083;&#1110;&#1082;&#1086;&#1074;&#1110; &#1079;&#1072;&#1083;&#1080;&#1096;&#1082;&#1080; &#1079;&#1110; &#1089;&#1082;&#1083;&#1072;&#1076;&#1091;</text><rect fill="#F1F1F1" height="33.9688" rx="12.5" ry="12.5" style="stroke:#181818;stroke-width:0.5;" width="146.1934" x="374.4258" y="934.4561"/><text fill="#000000" font-family="sans-serif" font-size="12" lengthAdjust="spacing" textLength="126.1934" x="384.4258" y="955.5947">&#1056;&#1086;&#1079;&#1088;&#1072;&#1093;&#1086;&#1074;&#1091;&#1108; &#1088;&#1110;&#1079;&#1085;&#1080;&#1094;&#1102;</text><rect fill="#F1F1F1" height="33.9688" rx="12.5" ry="12.5" style="stroke:#181818;stroke-width:0.5;" width="198.4355" x="348.3047" y="1036.8271"/><text fill="#000000" font-family="sans-serif" font-size="12" lengthAdjust="spacing" textLength="178.4355" x="358.3047" y="1057.9658">&#1054;&#1085;&#1086;&#1074;&#1083;&#1102;&#1108; &#1079;&#1072;&#1083;&#1080;&#1096;&#1082;&#1080; &#1085;&#1072; &#1089;&#1082;&#1083;&#1072;&#1076;&#1110;</text><polygon fill="#F1F1F1" points="404.6423,988.4248,490.4026,988.4248,502.4026,1000.4248,490.4026,1012.4248,404.6423,1012.4248,392.6423,1000.4248,404.6423,988.4248" style="stroke:#181818;stroke-width:0.5;"/><text fill="#000000" font-family="sans-serif" font-size="11" lengthAdjust="spacing" textLength="19.7925" x="451.5225" y="1022.6353">&#1090;&#1072;&#1082;</text><text fill="#000000" font-family="sans-serif" font-size="11" lengthAdjust="spacing" textLength="85.7603" x="404.6423" y="1004.2329">&#1028; &#1088;&#1086;&#1079;&#1073;&#1110;&#1078;&#1085;&#1086;&#1089;&#1090;&#1110;?</text><text fill="#000000" font-family="sans-serif" font-size="11" lengthAdjust="spacing" textLength="10.248" x="502.4026" y="997.8306">&#1085;&#1110;</text><polygon fill="#F1F1F1" points="447.5225,1090.7959,459.5225,1102.7959,447.5225,1114.7959,435.5225,1102.7959,447.5225,1090.7959" style="stroke:#181818;stroke-width:0.5;"/><rect fill="#F1F1F1" height="33.9688" rx="12.5" ry="12.5" style="stroke:#181818;stroke-width:0.5;" width="297.1074" x="298.9688" y="1134.7959"/><text fill="#000000" font-family="sans-serif" font-size="12" lengthAdjust="spacing" textLength="277.1074" x="308.9688" y="1155.9346">&#1054;&#1085;&#1086;&#1074;&#1083;&#1102;&#1108; &#1089;&#1090;&#1072;&#1090;&#1091;&#1089; &#1076;&#1086;&#1082;&#1091;&#1084;&#1077;&#1085;&#1090;&#1072; &#1085;&#1072; "&#1055;&#1088;&#1086;&#1074;&#1077;&#1076;&#1077;&#1085;&#1086;"</text><rect fill="#F1F1F1" height="33.9688" rx="12.5" ry="12.5" style="stroke:#181818;stroke-width:0.5;" width="217.4316" x="338.8066" y="1188.7646"/><text fill="#000000" font-family="sans-serif" font-size="12" lengthAdjust="spacing" textLength="197.4316" x="348.8066" y="1209.9033">&#1060;&#1110;&#1082;&#1089;&#1091;&#1108; &#1076;&#1072;&#1090;&#1091; &#1090;&#1072; &#1095;&#1072;&#1089; &#1087;&#1088;&#1086;&#1074;&#1077;&#1076;&#1077;&#1085;&#1085;&#1103;</text><rect fill="#F1F1F1" height="33.9688" rx="12.5" ry="12.5" style="stroke:#181818;stroke-width:0.5;" width="246.4941" x="324.2754" y="1242.7334"/><text fill="#000000" font-family="sans-serif" font-size="12" lengthAdjust="spacing" textLength="226.4941" x="334.2754" y="1263.8721">&#1055;&#1086;&#1074;&#1077;&#1088;&#1090;&#1072;&#1108; &#1088;&#1077;&#1079;&#1091;&#1083;&#1100;&#1090;&#1072;&#1090; &#1079; &#1089;&#1090;&#1072;&#1090;&#1091;&#1089;&#1086;&#1084; 200</text><line style="stroke:#000000;stroke-width:1.5;" x1="292.9688" x2="292.9688" y1="50.042" y2="1426.6396"/><line style="stroke:#000000;stroke-width:1.5;" x1="600.3174" x2="600.3174" y1="50.042" y2="1426.6396"/><line style="stroke:#181818;stroke-width:1;" x1="154.9844" x2="154.9844" y1="95.9951" y2="115.9951"/><polygon fill="#181818" points="150.9844,105.9951,154.9844,115.9951,158.9844,105.9951,154.9844,109.9951" style="stroke:#181818;stroke-width:1;"/><line style="stroke:#181818;stroke-width:1;" x1="154.9844" x2="154.9844" y1="149.9639" y2="169.9639"/><polygon fill="#181818" points="150.9844,159.9639,154.9844,169.9639,158.9844,159.9639,154.9844,163.9639" style="stroke:#181818;stroke-width:1;"/><line style="stroke:#181818;stroke-width:1;" x1="154.9844" x2="154.9844" y1="203.9326" y2="223.9326"/><polygon fill="#181818" points="150.9844,213.9326,154.9844,223.9326,158.9844,213.9326,154.9844,217.9326" style="stroke:#181818;stroke-width:1;"/><line style="stroke:#181818;stroke-width:1;" x1="154.9844" x2="154.9844" y1="468.21" y2="488.21"/><polygon fill="#181818" points="150.9844,478.21,154.9844,488.21,158.9844,478.21,154.9844,482.21" style="stroke:#181818;stroke-width:1;"/><line style="stroke:#181818;stroke-width:1;" x1="154.9844" x2="154.9844" y1="742.5186" y2="762.5186"/><polygon fill="#181818" points="150.9844,752.5186,154.9844,762.5186,158.9844,752.5186,154.9844,756.5186" style="stroke:#181818;stroke-width:1;"/><line style="stroke:#181818;stroke-width:1;" x1="154.9844" x2="154.9844" y1="1330.6709" y2="1350.6709"/><polygon fill="#181818" points="150.9844,1340.6709,154.9844,1350.6709,158.9844,1340.6709,154.9844,1344.6709" style="stroke:#181818;stroke-width:1;"/><line style="stroke:#181818;stroke-width:1;" x1="154.9844" x2="154.9844" y1="1384.6396" y2="1404.6396"/><polygon fill="#181818" points="150.9844,1394.6396,154.9844,1404.6396,158.9844,1394.6396,154.9844,1398.6396" style="stroke:#181818;stroke-width:1;"/><line style="stroke:#181818;stroke-width:1;" x1="447.5225" x2="447.5225" y1="355.8701" y2="380.2725"/><polygon fill="#181818" points="443.5225,370.2725,447.5225,380.2725,451.5225,370.2725,447.5225,374.2725" style="stroke:#181818;stroke-width:1;"/><line style="stroke:#181818;stroke-width:1;" x1="484.8176" x2="581.3174" y1="343.8701" y2="343.8701"/><polygon fill="#181818" points="577.3174,432.2412,581.3174,442.2412,585.3174,432.2412,581.3174,436.2412" style="stroke:#181818;stroke-width:1;"/><line style="stroke:#181818;stroke-width:1;" x1="581.3174" x2="581.3174" y1="343.8701" y2="532.21"/><line style="stroke:#181818;stroke-width:1;" x1="581.3174" x2="447.5225" y1="532.21" y2="532.21"/><line style="stroke:#181818;stroke-width:1;" x1="447.5225" x2="447.5225" y1="532.21" y2="552.21"/><polygon fill="#181818" points="443.5225,542.21,447.5225,552.21,451.5225,542.21,447.5225,546.21" style="stroke:#181818;stroke-width:1;"/><line style="stroke:#181818;stroke-width:1;" x1="447.5225" x2="447.5225" y1="311.8701" y2="331.8701"/><polygon fill="#181818" points="443.5225,321.8701,447.5225,331.8701,451.5225,321.8701,447.5225,325.8701" style="stroke:#181818;stroke-width:1;"/><line style="stroke:#181818;stroke-width:1;" x1="447.5225" x2="447.5225" y1="630.1787" y2="654.5811"/><polygon fill="#181818" points="443.5225,644.5811,447.5225,654.5811,451.5225,644.5811,447.5225,648.5811" style="stroke:#181818;stroke-width:1;"/><line style="stroke:#181818;stroke-width:1;" x1="536.4983" x2="581.3174" y1="618.1787" y2="618.1787"/><polygon fill="#181818" points="577.3174,706.5498,581.3174,716.5498,585.3174,706.5498,581.3174,710.5498" style="stroke:#181818;stroke-width:1;"/><line style="stroke:#181818;stroke-width:1;" x1="581.3174" x2="581.3174" y1="618.1787" y2="806.5186"/><line style="stroke:#181818;stroke-width:1;" x1="581.3174" x2="447.5225" y1="806.5186" y2="806.5186"/><line style="stroke:#181818;stroke-width:1;" x1="447.5225" x2="447.5225" y1="806.5186" y2="826.5186"/><polygon fill="#181818" points="443.5225,816.5186,447.5225,826.5186,451.5225,816.5186,447.5225,820.5186" style="stroke:#181818;stroke-width:1;"/><line style="stroke:#181818;stroke-width:1;" x1="447.5225" x2="447.5225" y1="586.1787" y2="606.1787"/><polygon fill="#181818" points="443.5225,596.1787,447.5225,606.1787,451.5225,596.1787,447.5225,600.1787" style="stroke:#181818;stroke-width:1;"/><line style="stroke:#181818;stroke-width:1;" x1="447.5225" x2="447.5225" y1="860.4873" y2="880.4873"/><polygon fill="#181818" points="443.5225,870.4873,447.5225,880.4873,451.5225,870.4873,447.5225,874.4873" style="stroke:#181818;stroke-width:1;"/><line style="stroke:#181818;stroke-width:1;" x1="447.5225" x2="447.5225" y1="914.4561" y2="934.4561"/><polygon fill="#181818" points="443.5225,924.4561,447.5225,934.4561,451.5225,924.4561,447.5225,928.4561" style="stroke:#181818;stroke-width:1;"/><line style="stroke:#181818;stroke-width:1;" x1="447.5225" x2="447.5225" y1="1012.4248" y2="1036.8271"/><polygon fill="#181818" points="443.5225,1026.8271,447.5225,1036.8271,451.5225,1026.8271,447.5225,1030.8271" style="stroke:#181818;stroke-width:1;"/><line style="stroke:#181818;stroke-width:1;" x1="502.4026" x2="556.7402" y1="1000.4248" y2="1000.4248"/><polygon fill="#181818" points="552.7402,1043.8115,556.7402,1053.8115,560.7402,1043.8115,556.7402,1047.8115" style="stroke:#181818;stroke-width:1;"/><line style="stroke:#181818;stroke-width:1;" x1="556.7402" x2="556.7402" y1="1000.4248" y2="1102.7959"/><line style="stroke:#181818;stroke-width:1;" x1="556.7402" x2="459.5225" y1="1102.7959" y2="1102.7959"/><polygon fill="#181818" points="469.5225,1098.7959,459.5225,1102.7959,469.5225,1106.7959,465.5225,1102.7959" style="stroke:#181818;stroke-width:1;"/><line style="stroke:#181818;stroke-width:1;" x1="447.5225" x2="447.5225" y1="1070.7959" y2="1090.7959"/><polygon fill="#181818" points="443.5225,1080.7959,447.5225,1090.7959,451.5225,1080.7959,447.5225,1084.7959" style="stroke:#181818;stroke-width:1;"/><line style="stroke:#181818;stroke-width:1;" x1="447.5225" x2="447.5225" y1="968.4248" y2="988.4248"/><polygon fill="#181818" points="443.5225,978.4248,447.5225,988.4248,451.5225,978.4248,447.5225,982.4248" style="stroke:#181818;stroke-width:1;"/><line style="stroke:#181818;stroke-width:1;" x1="447.5225" x2="447.5225" y1="1114.7959" y2="1134.7959"/><polygon fill="#181818" points="443.5225,1124.7959,447.5225,1134.7959,451.5225,1124.7959,447.5225,1128.7959" style="stroke:#181818;stroke-width:1;"/><line style="stroke:#181818;stroke-width:1;" x1="447.5225" x2="447.5225" y1="1168.7646" y2="1188.7646"/><polygon fill="#181818" points="443.5225,1178.7646,447.5225,1188.7646,451.5225,1178.7646,447.5225,1182.7646" style="stroke:#181818;stroke-width:1;"/><line style="stroke:#181818;stroke-width:1;" x1="447.5225" x2="447.5225" y1="1222.7334" y2="1242.7334"/><polygon fill="#181818" points="443.5225,1232.7334,447.5225,1242.7334,451.5225,1232.7334,447.5225,1236.7334" style="stroke:#181818;stroke-width:1;"/><line style="stroke:#181818;stroke-width:1;" x1="154.9844" x2="154.9844" y1="257.9014" y2="262.9014"/><line style="stroke:#181818;stroke-width:1;" x1="154.9844" x2="447.5225" y1="262.9014" y2="262.9014"/><line style="stroke:#181818;stroke-width:1;" x1="447.5225" x2="447.5225" y1="262.9014" y2="277.9014"/><polygon fill="#181818" points="443.5225,267.9014,447.5225,277.9014,451.5225,267.9014,447.5225,271.9014" style="stroke:#181818;stroke-width:1;"/><line style="stroke:#181818;stroke-width:1;" x1="447.5225" x2="447.5225" y1="414.2412" y2="419.2412"/><line style="stroke:#181818;stroke-width:1;" x1="447.5225" x2="154.9844" y1="419.2412" y2="419.2412"/><line style="stroke:#181818;stroke-width:1;" x1="154.9844" x2="154.9844" y1="419.2412" y2="434.2412"/><polygon fill="#181818" points="150.9844,424.2412,154.9844,434.2412,158.9844,424.2412,154.9844,428.2412" style="stroke:#181818;stroke-width:1;"/><line style="stroke:#181818;stroke-width:1;" x1="447.5225" x2="447.5225" y1="688.5498" y2="693.5498"/><line style="stroke:#181818;stroke-width:1;" x1="447.5225" x2="154.9844" y1="693.5498" y2="693.5498"/><line style="stroke:#181818;stroke-width:1;" x1="154.9844" x2="154.9844" y1="693.5498" y2="708.5498"/><polygon fill="#181818" points="150.9844,698.5498,154.9844,708.5498,158.9844,698.5498,154.9844,702.5498" style="stroke:#181818;stroke-width:1;"/><line style="stroke:#181818;stroke-width:1;" x1="447.5225" x2="447.5225" y1="1276.7021" y2="1281.7021"/><line style="stroke:#181818;stroke-width:1;" x1="447.5225" x2="154.9844" y1="1281.7021" y2="1281.7021"/><line style="stroke:#181818;stroke-width:1;" x1="154.9844" x2="154.9844" y1="1281.7021" y2="1296.7021"/><polygon fill="#181818" points="150.9844,1286.7021,154.9844,1296.7021,158.9844,1286.7021,154.9844,1290.7021" style="stroke:#181818;stroke-width:1;"/><text fill="#000000" font-family="sans-serif" font-size="18" lengthAdjust="spacing" textLength="132.3369" x="87.8159" y="66.75">&#1042;&#1077;&#1073;&#1110;&#1085;&#1090;&#1077;&#1088;&#1092;&#1077;&#1081;&#1089;</text><text fill="#000000" font-family="sans-serif" font-size="18" lengthAdjust="spacing" textLength="141.583" x="375.8516" y="66.75">&#1041;&#1077;&#1082;&#1077;&#1085;&#1076;-&#1089;&#1077;&#1088;&#1074;&#1077;&#1088;</text><!--SRC=[pLJ1RjDG4BpxAvvoQWv85N321xu52LT4gWeYFkRW92tbW5fHHKP2WdBW0zpAmQbJsx-m-qVCxBFR1ACKE7688h_TDpixE_lYKNmOERdKH6gvbgNa-5LIwRcJJ4gTwTnfYXF6Afr9XioL5FX_fwb-2eA9N21qnII4bvheCRvlT3e9nl6Bjt7mJ3vBpLiw9HoGCZrrSeqREIeGZaSBfrDfc0KcPOXhNt0wiuFIulYh46jmQUu6zvo9Awk1GwHsfEPXT4wG2olJ83T3xbhF2TJbp1mGCnO6RuDAGdRq4HsK9aJ-Q3Cu2O1uQTzBDe1c3Q-3pnngrMsV3Ga4emEtPrHzN1VFXov-5HtXjD9q63X7HDz7Olekh16vXIvhQ_Nf_fCGUJk4xa2WanGwxo2yn8HQtq-LNEjVIX1-7Bz-4qI7uyZjaOQKmo0wUZawsAt7x-ImUMJKGASc24kWM6kWJfJ5Te2ZMBRqDfouafj_KMp_FrRiAwIXws-jBZZPei6EfspGktEDp_T0ME7pRXF3tcLGkeAfKsGQ-VvbdDa2hN6UUuXlo2teI3snMyOY0KX1lR7NPzs8ZfrDep0DVt3xpDlftKIwli7BTfCRTjPjs0QDTiiw6cdOwkOd-cUgRHLum6E-ug3thjK32l2TWl618DFSmpYxXX5a16pwxs7uy29iUzAs0ju2um-UB6UvIPo6Se_frLslwDyQrP0RRED9s9yBklKcepvinbwcYXC9wEUV]--></g></svg>