<svg xmlns="http://www.w3.org/2000/svg" xmlns:xlink="http://www.w3.org/1999/xlink" contentStyleType="text/css" data-diagram-type="ACTIVITY" height="921px" preserveAspectRatio="none" style="width:727px;height:921px;background:#FFFFFF;" version="1.1" viewBox="0 0 727 921" width="727px" zoomAndPan="magnify"><title>&#1057;&#1090;&#1074;&#1086;&#1088;&#1077;&#1085;&#1085;&#1103; &#1085;&#1072;&#1082;&#1083;&#1072;&#1076;&#1085;&#1086;&#1111;</title><defs/><g><g class="title" data-source-line="1"><text fill="#000000" font-family="sans-serif" font-size="14" font-weight="bold" lengthAdjust="spacing" textLength="173.3115" x="275.6213" y="32.9951">&#1057;&#1090;&#1074;&#1086;&#1088;&#1077;&#1085;&#1085;&#1103; &#1085;&#1072;&#1082;&#1083;&#1072;&#1076;&#1085;&#1086;&#1111;</text></g><rect fill="none" height="20.9531" style="stroke:none;stroke-width:1;" width="694.5542" x="15" y="50.042"/><ellipse cx="144.7949" cy="85.9951" fill="#222222" rx="10" ry="10" style="stroke:#222222;stroke-width:1;"/><rect fill="#F1F1F1" height="47.9375" rx="12.5" ry="12.5" style="stroke:#181818;stroke-width:0.5;" width="154.0156" x="67.7871" y="115.9951"/><text fill="#000000" font-family="sans-serif" font-size="12" lengthAdjust="spacing" textLength="109.6113" x="77.7871" y="137.1338">&#1042;&#1110;&#1076;&#1082;&#1088;&#1080;&#1090;&#1090;&#1103; &#1092;&#1086;&#1088;&#1084;&#1080;</text><text fill="#000000" font-family="sans-serif" font-size="12" lengthAdjust="spacing" textLength="134.0156" x="77.7871" y="151.1025">&#1089;&#1090;&#1074;&#1086;&#1088;&#1077;&#1085;&#1085;&#1103; &#1085;&#1072;&#1082;&#1083;&#1072;&#1076;&#1085;&#1086;&#1111;</text><rect fill="#F1F1F1" height="33.9688" rx="12.5" ry="12.5" style="stroke:#181818;stroke-width:0.5;" width="137.6563" x="75.9668" y="183.9326"/><text fill="#000000" font-family="sans-serif" font-size="12" lengthAdjust="spacing" textLength="117.6563" x="85.9668" y="205.0713">&#1047;&#1072;&#1087;&#1086;&#1074;&#1085;&#1077;&#1085;&#1085;&#1103; &#1076;&#1072;&#1085;&#1080;&#1093;</text><rect fill="#F1F1F1" height="47.9375" rx="12.5" ry="12.5" style="stroke:#181818;stroke-width:0.5;" width="131.6387" x="78.9756" y="237.9014"/><text fill="#000000" font-family="sans-serif" font-size="12" lengthAdjust="spacing" textLength="111.6387" x="88.9756" y="259.04">&#1042;&#1110;&#1076;&#1087;&#1088;&#1072;&#1074;&#1082;&#1072; &#1079;&#1072;&#1087;&#1080;&#1090;&#1091;</text><text fill="#000000" font-family="sans-serif" font-size="12" lengthAdjust="spacing" textLength="62.6836" x="88.9756" y="273.0088">&#1085;&#1072; &#1089;&#1077;&#1088;&#1074;&#1077;&#1088;</text><rect fill="#F1F1F1" height="33.9688" rx="12.5" ry="12.5" style="stroke:#181818;stroke-width:0.5;" width="247.5898" x="21" y="476.1475"/><text fill="#000000" font-family="sans-serif" font-size="12" lengthAdjust="spacing" textLength="227.5898" x="31" y="497.2861">&#1055;&#1086;&#1082;&#1072;&#1079;&#1091;&#1108; &#1087;&#1086;&#1074;&#1110;&#1076;&#1086;&#1084;&#1083;&#1077;&#1085;&#1085;&#1103; &#1087;&#1088;&#1086; &#1087;&#1086;&#1084;&#1080;&#1083;&#1082;&#1091;</text><ellipse cx="144.7949" cy="541.1162" fill="none" rx="11" ry="11" style="stroke:#222222;stroke-width:1;"/><ellipse cx="144.7949" cy="541.1162" fill="#222222" rx="6" ry="6" style="stroke:#222222;stroke-width:1;"/><rect fill="#F1F1F1" height="47.9375" rx="12.5" ry="12.5" style="stroke:#181818;stroke-width:0.5;" width="110.6797" x="89.4551" y="820.0225"/><text fill="#000000" font-family="sans-serif" font-size="12" lengthAdjust="spacing" textLength="90.6797" x="99.4551" y="841.1611">&#1042;&#1110;&#1076;&#1086;&#1073;&#1088;&#1072;&#1078;&#1077;&#1085;&#1085;&#1103;</text><text fill="#000000" font-family="sans-serif" font-size="12" lengthAdjust="spacing" textLength="71.6602" x="99.4551" y="855.1299">&#1088;&#1077;&#1079;&#1091;&#1083;&#1100;&#1090;&#1072;&#1090;&#1091;</text><ellipse cx="144.7949" cy="898.96" fill="none" rx="11" ry="11" style="stroke:#222222;stroke-width:1;"/><ellipse cx="144.7949" cy="898.96" fill="#222222" rx="6" ry="6" style="stroke:#222222;stroke-width:1;"/><line style="stroke:#000000;stroke-width:1.5;" x1="15" x2="15" y1="50.042" y2="909.96"/><rect fill="#F1F1F1" height="47.9375" rx="12.5" ry="12.5" style="stroke:#181818;stroke-width:0.5;" width="117.7344" x="421.9312" y="305.8389"/><text fill="#000000" font-family="sans-serif" font-size="12" lengthAdjust="spacing" textLength="97.7344" x="431.9312" y="326.9775">&#1055;&#1077;&#1088;&#1077;&#1074;&#1110;&#1088;&#1082;&#1072; &#1087;&#1088;&#1072;&#1074;</text><text fill="#000000" font-family="sans-serif" font-size="12" lengthAdjust="spacing" textLength="51.2754" x="431.9312" y="340.9463">&#1076;&#1086;&#1089;&#1090;&#1091;&#1087;&#1091;</text><rect fill="#F1F1F1" height="33.9688" rx="12.5" ry="12.5" style="stroke:#181818;stroke-width:0.5;" width="163.959" x="398.8188" y="422.1787"/><text fill="#000000" font-family="sans-serif" font-size="12" lengthAdjust="spacing" textLength="143.959" x="408.8188" y="443.3174">&#1055;&#1086;&#1074;&#1077;&#1088;&#1090;&#1072;&#1108; &#1087;&#1086;&#1084;&#1080;&#1083;&#1082;&#1091; 403</text><polygon fill="#F1F1F1" points="455.5032,373.7764,506.0935,373.7764,518.0935,385.7764,506.0935,397.7764,455.5032,397.7764,443.5032,385.7764,455.5032,373.7764" style="stroke:#181818;stroke-width:0.5;"/><text fill="#000000" font-family="sans-serif" font-size="11" lengthAdjust="spacing" textLength="10.248" x="484.7983" y="407.9868">&#1085;&#1110;</text><text fill="#000000" font-family="sans-serif" font-size="11" lengthAdjust="spacing" textLength="50.5903" x="455.5032" y="389.5845">&#1055;&#1088;&#1072;&#1074;&#1072; &#1108;?</text><text fill="#000000" font-family="sans-serif" font-size="11" lengthAdjust="spacing" textLength="19.7925" x="518.0935" y="383.1821">&#1090;&#1072;&#1082;</text><polygon fill="#F1F1F1" points="442.7576,594.1162,518.8391,594.1162,530.8391,606.1162,518.8391,618.1162,442.7576,618.1162,430.7576,606.1162,442.7576,594.1162" style="stroke:#181818;stroke-width:0.5;"/><text fill="#000000" font-family="sans-serif" font-size="11" lengthAdjust="spacing" textLength="76.0815" x="442.7576" y="609.9243">&#1044;&#1072;&#1085;&#1110; &#1074;&#1072;&#1083;&#1110;&#1076;&#1085;&#1110;?</text><text fill="#000000" font-family="sans-serif" font-size="11" lengthAdjust="spacing" textLength="10.248" x="420.5095" y="603.522">&#1085;&#1110;</text><text fill="#000000" font-family="sans-serif" font-size="11" lengthAdjust="spacing" textLength="19.7925" x="530.8391" y="603.522">&#1090;&#1072;&#1082;</text><rect fill="#F1F1F1" height="33.9688" rx="12.5" ry="12.5" style="stroke:#181818;stroke-width:0.5;" width="181.8652" x="278.5898" y="628.1162"/><text fill="#000000" font-family="sans-serif" font-size="12" lengthAdjust="spacing" textLength="161.8652" x="288.5898" y="649.2549">&#1055;&#1086;&#1074;&#1077;&#1088;&#1085;&#1077;&#1085;&#1085;&#1103; &#1087;&#1086;&#1084;&#1080;&#1083;&#1082;&#1080; 400</text><rect fill="#F1F1F1" height="33.9688" rx="12.5" ry="12.5" style="stroke:#181818;stroke-width:0.5;" width="223.2383" x="480.4551" y="628.1162"/><text fill="#000000" font-family="sans-serif" font-size="12" lengthAdjust="spacing" textLength="203.2383" x="490.4551" y="649.2549">&#1057;&#1090;&#1074;&#1086;&#1088;&#1077;&#1085;&#1085;&#1103; ORM-&#1086;&#1073;&#8217;&#1108;&#1082;&#1090;&#1072; &#1090;&#1072;&#1073;&#1083;&#1080;&#1094;&#1110;</text><rect fill="#F1F1F1" height="33.9688" rx="12.5" ry="12.5" style="stroke:#181818;stroke-width:0.5;" width="139.7363" x="522.2061" y="682.085"/><text fill="#000000" font-family="sans-serif" font-size="12" lengthAdjust="spacing" textLength="119.7363" x="532.2061" y="703.2236">&#1044;&#1086;&#1076;&#1072;&#1074;&#1072;&#1085;&#1085;&#1103; &#1086;&#1073;'&#1108;&#1082;&#1090;&#1072;</text><rect fill="#F1F1F1" height="33.9688" rx="12.5" ry="12.5" style="stroke:#181818;stroke-width:0.5;" width="202.543" x="490.8027" y="736.0537"/><text fill="#000000" font-family="sans-serif" font-size="12" lengthAdjust="spacing" textLength="182.543" x="500.8027" y="757.1924">&#1055;&#1086;&#1074;&#1077;&#1088;&#1085;&#1077;&#1085;&#1085;&#1103; &#1089;&#1090;&#1072;&#1090;&#1091;&#1089; &#1082;&#1086;&#1076;&#1091; 201</text><polygon fill="#F1F1F1" points="480.7983,776.0225,492.7983,788.0225,480.7983,800.0225,468.7983,788.0225,480.7983,776.0225" style="stroke:#181818;stroke-width:0.5;"/><line style="stroke:#000000;stroke-width:1.5;" x1="272.5898" x2="272.5898" y1="50.042" y2="909.96"/><line style="stroke:#000000;stroke-width:1.5;" x1="707.6934" x2="707.6934" y1="50.042" y2="909.96"/><line style="stroke:#181818;stroke-width:1;" x1="144.7949" x2="144.7949" y1="95.9951" y2="115.9951"/><polygon fill="#181818" points="140.7949,105.9951,144.7949,115.9951,148.7949,105.9951,144.7949,109.9951" style="stroke:#181818;stroke-width:1;"/><line style="stroke:#181818;stroke-width:1;" x1="144.7949" x2="144.7949" y1="163.9326" y2="183.9326"/><polygon fill="#181818" points="140.7949,173.9326,144.7949,183.9326,148.7949,173.9326,144.7949,177.9326" style="stroke:#181818;stroke-width:1;"/><line style="stroke:#181818;stroke-width:1;" x1="144.7949" x2="144.7949" y1="217.9014" y2="237.9014"/><polygon fill="#181818" points="140.7949,227.9014,144.7949,237.9014,148.7949,227.9014,144.7949,231.9014" style="stroke:#181818;stroke-width:1;"/><line style="stroke:#181818;stroke-width:1;" x1="144.7949" x2="144.7949" y1="510.1162" y2="530.1162"/><polygon fill="#181818" points="140.7949,520.1162,144.7949,530.1162,148.7949,520.1162,144.7949,524.1162" style="stroke:#181818;stroke-width:1;"/><line style="stroke:#181818;stroke-width:1;" x1="144.7949" x2="144.7949" y1="867.96" y2="887.96"/><polygon fill="#181818" points="140.7949,877.96,144.7949,887.96,148.7949,877.96,144.7949,881.96" style="stroke:#181818;stroke-width:1;"/><line style="stroke:#181818;stroke-width:1;" x1="480.7983" x2="480.7983" y1="397.7764" y2="422.1787"/><polygon fill="#181818" points="476.7983,412.1787,480.7983,422.1787,484.7983,412.1787,480.7983,416.1787" style="stroke:#181818;stroke-width:1;"/><line style="stroke:#181818;stroke-width:1;" x1="518.0935" x2="614.5933" y1="385.7764" y2="385.7764"/><polygon fill="#181818" points="610.5933,474.1475,614.5933,484.1475,618.5933,474.1475,614.5933,478.1475" style="stroke:#181818;stroke-width:1;"/><line style="stroke:#181818;stroke-width:1;" x1="614.5933" x2="614.5933" y1="385.7764" y2="574.1162"/><line style="stroke:#181818;stroke-width:1;" x1="614.5933" x2="480.7983" y1="574.1162" y2="574.1162"/><line style="stroke:#181818;stroke-width:1;" x1="480.7983" x2="480.7983" y1="574.1162" y2="594.1162"/><polygon fill="#181818" points="476.7983,584.1162,480.7983,594.1162,484.7983,584.1162,480.7983,588.1162" style="stroke:#181818;stroke-width:1;"/><line style="stroke:#181818;stroke-width:1;" x1="480.7983" x2="480.7983" y1="353.7764" y2="373.7764"/><polygon fill="#181818" points="476.7983,363.7764,480.7983,373.7764,484.7983,363.7764,480.7983,367.7764" style="stroke:#181818;stroke-width:1;"/><line style="stroke:#181818;stroke-width:1;" x1="592.0742" x2="592.0742" y1="662.085" y2="682.085"/><polygon fill="#181818" points="588.0742,672.085,592.0742,682.085,596.0742,672.085,592.0742,676.085" style="stroke:#181818;stroke-width:1;"/><line style="stroke:#181818;stroke-width:1;" x1="592.0742" x2="592.0742" y1="716.0537" y2="736.0537"/><polygon fill="#181818" points="588.0742,726.0537,592.0742,736.0537,596.0742,726.0537,592.0742,730.0537" style="stroke:#181818;stroke-width:1;"/><line style="stroke:#181818;stroke-width:1;" x1="430.7576" x2="369.5225" y1="606.1162" y2="606.1162"/><line style="stroke:#181818;stroke-width:1;" x1="369.5225" x2="369.5225" y1="606.1162" y2="628.1162"/><polygon fill="#181818" points="365.5225,618.1162,369.5225,628.1162,373.5225,618.1162,369.5225,622.1162" style="stroke:#181818;stroke-width:1;"/><line style="stroke:#181818;stroke-width:1;" x1="530.8391" x2="592.0742" y1="606.1162" y2="606.1162"/><line style="stroke:#181818;stroke-width:1;" x1="592.0742" x2="592.0742" y1="606.1162" y2="628.1162"/><polygon fill="#181818" points="588.0742,618.1162,592.0742,628.1162,596.0742,618.1162,592.0742,622.1162" style="stroke:#181818;stroke-width:1;"/><line style="stroke:#181818;stroke-width:1;" x1="369.5225" x2="369.5225" y1="662.085" y2="788.0225"/><line style="stroke:#181818;stroke-width:1;" x1="369.5225" x2="468.7983" y1="788.0225" y2="788.0225"/><polygon fill="#181818" points="458.7983,784.0225,468.7983,788.0225,458.7983,792.0225,462.7983,788.0225" style="stroke:#181818;stroke-width:1;"/><line style="stroke:#181818;stroke-width:1;" x1="592.0742" x2="592.0742" y1="770.0225" y2="788.0225"/><line style="stroke:#181818;stroke-width:1;" x1="592.0742" x2="492.7983" y1="788.0225" y2="788.0225"/><polygon fill="#181818" points="502.7983,784.0225,492.7983,788.0225,502.7983,792.0225,498.7983,788.0225" style="stroke:#181818;stroke-width:1;"/><line style="stroke:#181818;stroke-width:1;" x1="144.7949" x2="144.7949" y1="285.8389" y2="290.8389"/><line style="stroke:#181818;stroke-width:1;" x1="144.7949" x2="480.7983" y1="290.8389" y2="290.8389"/><line style="stroke:#181818;stroke-width:1;" x1="480.7983" x2="480.7983" y1="290.8389" y2="305.8389"/><polygon fill="#181818" points="476.7983,295.8389,480.7983,305.8389,484.7983,295.8389,480.7983,299.8389" style="stroke:#181818;stroke-width:1;"/><line style="stroke:#181818;stroke-width:1;" x1="480.7983" x2="480.7983" y1="456.1475" y2="461.1475"/><line style="stroke:#181818;stroke-width:1;" x1="480.7983" x2="144.7949" y1="461.1475" y2="461.1475"/><line style="stroke:#181818;stroke-width:1;" x1="144.7949" x2="144.7949" y1="461.1475" y2="476.1475"/><polygon fill="#181818" points="140.7949,466.1475,144.7949,476.1475,148.7949,466.1475,144.7949,470.1475" style="stroke:#181818;stroke-width:1;"/><line style="stroke:#181818;stroke-width:1;" x1="480.7983" x2="480.7983" y1="800.0225" y2="805.0225"/><line style="stroke:#181818;stroke-width:1;" x1="480.7983" x2="144.7949" y1="805.0225" y2="805.0225"/><line style="stroke:#181818;stroke-width:1;" x1="144.7949" x2="144.7949" y1="805.0225" y2="820.0225"/><polygon fill="#181818" points="140.7949,810.0225,144.7949,820.0225,148.7949,810.0225,144.7949,814.0225" style="stroke:#181818;stroke-width:1;"/><text fill="#000000" font-family="sans-serif" font-size="18" lengthAdjust="spacing" textLength="132.3369" x="77.6265" y="66.75">&#1042;&#1077;&#1073;&#1110;&#1085;&#1090;&#1077;&#1088;&#1092;&#1077;&#1081;&#1089;</text><text fill="#000000" font-family="sans-serif" font-size="18" lengthAdjust="spacing" textLength="140.8096" x="419.7368" y="66.75">&#1041;&#1077;&#1082;&#1077;&#1085;&#1076; &#1089;&#1077;&#1088;&#1074;&#1077;&#1088;</text><!--SRC=[ZL9DJi905DxFAMOdB4pmP-KiF84nyGOcbaX2q4YNB6Yhhao8f2bnHRn18KLgiUKAxrs1a_YzWGfY8AP9svbvx_jxupRSfgFfdNqQKy5Tcb1EEVSqFZ5bDCCxmN_10wKwrCVvY2DK-3JXBZzY_SbUHxNTwmTNdL4VXmbb04hPnzFJg17SBqeLU_-WCK0PO3cd0hNvkZB1PWxO9wD-YEQ0Yb6MKQnfQhk4Dr22gzaJaJZ6suZyLw1b5Z7vTTW1uD0k9pJc25yBk49N82f4EmVO2engr7M5XYjgq8JdLUtUEYtivXnLbTO2LoonOJdcK5i_205MCmxqQUt4e6vFeYK8bD2KWn9YR7qBr6mTZGWjjYW4lktUtIkdsNPqHMHGLbLEwwPHtv-5jHTAsXnfSKWpIuhbFgERizfGGYdCrioM3EdyU-akhouEqJbQTDyuX0bVqfME4P1IVkR8sCuGHSao_P8HNGTbZzafpDx0M2R9deOsm60OnxKZimvcvqJAImSgE_kF4bPP2nWIWdef2OoIzBy1]--></g></svg>