<svg xmlns="http://www.w3.org/2000/svg" xmlns:xlink="http://www.w3.org/1999/xlink" contentStyleType="text/css" data-diagram-type="ACTIVITY" height="1238px" preserveAspectRatio="none" style="width:637px;height:1238px;background:#FFFFFF;" version="1.1" viewBox="0 0 637 1238" width="637px" zoomAndPan="magnify"><title>&#1055;&#1088;&#1086;&#1074;&#1077;&#1076;&#1077;&#1085;&#1085;&#1103; &#1076;&#1086;&#1082;&#1091;&#1084;&#1077;&#1085;&#1090;&#1072; &#1087;&#1077;&#1088;&#1077;&#1084;&#1110;&#1097;&#1077;&#1085;&#1085;&#1103; &#1089;&#1080;&#1088;&#1086;&#1074;&#1080;&#1085;&#1080;</title><defs/><g><g class="title" data-source-line="1"><text fill="#000000" font-family="sans-serif" font-size="14" font-weight="bold" lengthAdjust="spacing" textLength="385.3281" x="124.6609" y="32.9951">&#1055;&#1088;&#1086;&#1074;&#1077;&#1076;&#1077;&#1085;&#1085;&#1103; &#1076;&#1086;&#1082;&#1091;&#1084;&#1077;&#1085;&#1090;&#1072; &#1087;&#1077;&#1088;&#1077;&#1084;&#1110;&#1097;&#1077;&#1085;&#1085;&#1103; &#1089;&#1080;&#1088;&#1086;&#1074;&#1080;&#1085;&#1080;</text></g><rect fill="none" height="20.9531" style="stroke:none;stroke-width:1;" width="604.6499" x="15" y="50.042"/><ellipse cx="154.9844" cy="85.9951" fill="#222222" rx="10" ry="10" style="stroke:#222222;stroke-width:1;"/><rect fill="#F1F1F1" height="33.9688" rx="12.5" ry="12.5" style="stroke:#181818;stroke-width:0.5;" width="206.9199" x="51.5244" y="115.9951"/><text fill="#000000" font-family="sans-serif" font-size="12" lengthAdjust="spacing" textLength="186.9199" x="61.5244" y="137.1338">&#1050;&#1086;&#1088;&#1080;&#1089;&#1090;&#1091;&#1074;&#1072;&#1095; &#1074;&#1110;&#1076;&#1082;&#1088;&#1080;&#1074;&#1072;&#1108; &#1089;&#1087;&#1080;&#1089;&#1086;&#1082;</text><rect fill="#F1F1F1" height="33.9688" rx="12.5" ry="12.5" style="stroke:#181818;stroke-width:0.5;" width="267.9688" x="21" y="169.9639"/><text fill="#000000" font-family="sans-serif" font-size="12" lengthAdjust="spacing" textLength="247.9688" x="31" y="191.1025">&#1053;&#1072;&#1090;&#1080;&#1089;&#1082;&#1072;&#1108; &#1082;&#1085;&#1086;&#1087;&#1082;&#1091; "&#1055;&#1088;&#1086;&#1074;&#1077;&#1089;&#1090;&#1080;" &#1087;&#1086; &#1079;&#1072;&#1087;&#1080;&#1089;&#1091;</text><rect fill="#F1F1F1" height="33.9688" rx="12.5" ry="12.5" style="stroke:#181818;stroke-width:0.5;" width="198.1367" x="55.916" y="223.9326"/><text fill="#000000" font-family="sans-serif" font-size="12" lengthAdjust="spacing" textLength="178.1367" x="65.916" y="245.0713">&#1042;&#1110;&#1076;&#1087;&#1088;&#1072;&#1074;&#1082;&#1072; &#1079;&#1072;&#1087;&#1080;&#1090;&#1091; &#1085;&#1072; &#1089;&#1077;&#1088;&#1074;&#1077;&#1088;</text><rect fill="#F1F1F1" height="33.9688" rx="12.5" ry="12.5" style="stroke:#181818;stroke-width:0.5;" width="247.5898" x="31.1895" y="434.2412"/><text fill="#000000" font-family="sans-serif" font-size="12" lengthAdjust="spacing" textLength="227.5898" x="41.1895" y="455.3799">&#1055;&#1086;&#1082;&#1072;&#1079;&#1091;&#1108; &#1087;&#1086;&#1074;&#1110;&#1076;&#1086;&#1084;&#1083;&#1077;&#1085;&#1085;&#1103; &#1087;&#1088;&#1086; &#1087;&#1086;&#1084;&#1080;&#1083;&#1082;&#1091;</text><ellipse cx="154.9844" cy="499.21" fill="none" rx="11" ry="11" style="stroke:#222222;stroke-width:1;"/><ellipse cx="154.9844" cy="499.21" fill="#222222" rx="6" ry="6" style="stroke:#222222;stroke-width:1;"/><rect fill="#F1F1F1" height="33.9688" rx="12.5" ry="12.5" style="stroke:#181818;stroke-width:0.5;" width="243.8926" x="33.0381" y="708.5498"/><text fill="#000000" font-family="sans-serif" font-size="12" lengthAdjust="spacing" textLength="223.8926" x="43.0381" y="729.6885">&#1055;&#1086;&#1082;&#1072;&#1079;&#1091;&#1108; &#1087;&#1086;&#1074;&#1110;&#1076;&#1086;&#1084;&#1083;&#1077;&#1085;&#1085;&#1103; &#1087;&#1088;&#1086; &#1085;&#1077;&#1089;&#1090;&#1072;&#1095;&#1091;</text><ellipse cx="154.9844" cy="773.5186" fill="none" rx="11" ry="11" style="stroke:#222222;stroke-width:1;"/><ellipse cx="154.9844" cy="773.5186" fill="#222222" rx="6" ry="6" style="stroke:#222222;stroke-width:1;"/><rect fill="#F1F1F1" height="33.9688" rx="12.5" ry="12.5" style="stroke:#181818;stroke-width:0.5;" width="225.5117" x="42.2285" y="1096.3623"/><text fill="#000000" font-family="sans-serif" font-size="12" lengthAdjust="spacing" textLength="205.5117" x="52.2285" y="1117.501">&#1055;&#1086;&#1082;&#1072;&#1079;&#1091;&#1108; &#1087;&#1086;&#1074;&#1110;&#1076;&#1086;&#1084;&#1083;&#1077;&#1085;&#1085;&#1103; &#1087;&#1088;&#1086; &#1091;&#1089;&#1087;&#1110;&#1093;</text><rect fill="#F1F1F1" height="33.9688" rx="12.5" ry="12.5" style="stroke:#181818;stroke-width:0.5;" width="170.3164" x="69.8262" y="1150.3311"/><text fill="#000000" font-family="sans-serif" font-size="12" lengthAdjust="spacing" textLength="150.3164" x="79.8262" y="1171.4697">&#1054;&#1085;&#1086;&#1074;&#1083;&#1102;&#1108; &#1076;&#1072;&#1085;&#1110; &#1085;&#1072; &#1077;&#1082;&#1088;&#1072;&#1085;&#1110;</text><ellipse cx="154.9844" cy="1215.2998" fill="none" rx="11" ry="11" style="stroke:#222222;stroke-width:1;"/><ellipse cx="154.9844" cy="1215.2998" fill="#222222" rx="6" ry="6" style="stroke:#222222;stroke-width:1;"/><line style="stroke:#000000;stroke-width:1.5;" x1="15" x2="15" y1="50.042" y2="1226.2998"/><rect fill="#F1F1F1" height="33.9688" rx="12.5" ry="12.5" style="stroke:#181818;stroke-width:0.5;" width="179.3809" x="366.6885" y="277.9014"/><text fill="#000000" font-family="sans-serif" font-size="12" lengthAdjust="spacing" textLength="159.3809" x="376.6885" y="299.04">&#1055;&#1077;&#1088;&#1077;&#1074;&#1110;&#1088;&#1103;&#1108; &#1087;&#1088;&#1072;&#1074;&#1072; &#1076;&#1086;&#1089;&#1090;&#1091;&#1087;&#1091;</text><rect fill="#F1F1F1" height="33.9688" rx="12.5" ry="12.5" style="stroke:#181818;stroke-width:0.5;" width="163.959" x="374.3994" y="380.2725"/><text fill="#000000" font-family="sans-serif" font-size="12" lengthAdjust="spacing" textLength="143.959" x="384.3994" y="401.4111">&#1055;&#1086;&#1074;&#1077;&#1088;&#1090;&#1072;&#1108; &#1087;&#1086;&#1084;&#1080;&#1083;&#1082;&#1091; 403</text><polygon fill="#F1F1F1" points="431.0837,331.8701,481.6741,331.8701,493.6741,343.8701,481.6741,355.8701,431.0837,355.8701,419.0837,343.8701,431.0837,331.8701" style="stroke:#181818;stroke-width:0.5;"/><text fill="#000000" font-family="sans-serif" font-size="11" lengthAdjust="spacing" textLength="10.248" x="460.3789" y="366.0806">&#1085;&#1110;</text><text fill="#000000" font-family="sans-serif" font-size="11" lengthAdjust="spacing" textLength="50.5903" x="431.0837" y="347.6782">&#1055;&#1088;&#1072;&#1074;&#1072; &#1108;?</text><text fill="#000000" font-family="sans-serif" font-size="11" lengthAdjust="spacing" textLength="19.7925" x="493.6741" y="341.2759">&#1090;&#1072;&#1082;</text><rect fill="#F1F1F1" height="33.9688" rx="12.5" ry="12.5" style="stroke:#181818;stroke-width:0.5;" width="288.7754" x="311.9912" y="552.21"/><text fill="#000000" font-family="sans-serif" font-size="12" lengthAdjust="spacing" textLength="268.7754" x="321.9912" y="573.3486">&#1055;&#1077;&#1088;&#1077;&#1074;&#1110;&#1088;&#1103;&#1108; &#1079;&#1072;&#1083;&#1080;&#1096;&#1082;&#1080; &#1085;&#1072; &#1089;&#1082;&#1083;&#1072;&#1076;&#1110;-&#1074;&#1110;&#1076;&#1087;&#1088;&#1072;&#1074;&#1085;&#1080;&#1082;&#1072;</text><rect fill="#F1F1F1" height="33.9688" rx="12.5" ry="12.5" style="stroke:#181818;stroke-width:0.5;" width="223.7305" x="344.5137" y="654.5811"/><text fill="#000000" font-family="sans-serif" font-size="12" lengthAdjust="spacing" textLength="203.7305" x="354.5137" y="675.7197">&#1055;&#1086;&#1074;&#1077;&#1088;&#1090;&#1072;&#1108; &#1087;&#1086;&#1084;&#1080;&#1083;&#1082;&#1091; &#1085;&#1077;&#1089;&#1090;&#1072;&#1095;&#1110; (400)</text><polygon fill="#F1F1F1" points="394.4287,606.1787,518.3291,606.1787,530.3291,618.1787,518.3291,630.1787,394.4287,630.1787,382.4287,618.1787,394.4287,606.1787" style="stroke:#181818;stroke-width:0.5;"/><text fill="#000000" font-family="sans-serif" font-size="11" lengthAdjust="spacing" textLength="10.248" x="460.3789" y="640.3892">&#1085;&#1110;</text><text fill="#000000" font-family="sans-serif" font-size="11" lengthAdjust="spacing" textLength="123.9004" x="394.4287" y="621.9868">&#1047;&#1072;&#1083;&#1080;&#1096;&#1082;&#1110;&#1074; &#1076;&#1086;&#1089;&#1090;&#1072;&#1090;&#1085;&#1100;&#1086;?</text><text fill="#000000" font-family="sans-serif" font-size="11" lengthAdjust="spacing" textLength="19.7925" x="530.3291" y="615.5845">&#1090;&#1072;&#1082;</text><rect fill="#F1F1F1" height="33.9688" rx="12.5" ry="12.5" style="stroke:#181818;stroke-width:0.5;" width="239.9023" x="336.4277" y="826.5186"/><text fill="#000000" font-family="sans-serif" font-size="12" lengthAdjust="spacing" textLength="219.9023" x="346.4277" y="847.6572">&#1057;&#1087;&#1080;&#1089;&#1091;&#1108; &#1058;&#1052;&#1062; &#1079;&#1110; &#1089;&#1082;&#1083;&#1072;&#1076;&#1091;-&#1074;&#1110;&#1076;&#1087;&#1088;&#1072;&#1074;&#1085;&#1080;&#1082;&#1072;</text><rect fill="#F1F1F1" height="33.9688" rx="12.5" ry="12.5" style="stroke:#181818;stroke-width:0.5;" width="274.7539" x="319.002" y="880.4873"/><text fill="#000000" font-family="sans-serif" font-size="12" lengthAdjust="spacing" textLength="254.7539" x="329.002" y="901.626">&#1054;&#1087;&#1088;&#1080;&#1073;&#1091;&#1090;&#1082;&#1086;&#1074;&#1091;&#1108; &#1058;&#1052;&#1062; &#1085;&#1072; &#1089;&#1082;&#1083;&#1072;&#1076;-&#1086;&#1076;&#1077;&#1088;&#1078;&#1091;&#1074;&#1072;&#1095;</text><rect fill="#F1F1F1" height="33.9688" rx="12.5" ry="12.5" style="stroke:#181818;stroke-width:0.5;" width="297.1074" x="307.8252" y="934.4561"/><text fill="#000000" font-family="sans-serif" font-size="12" lengthAdjust="spacing" textLength="277.1074" x="317.8252" y="955.5947">&#1054;&#1085;&#1086;&#1074;&#1083;&#1102;&#1108; &#1089;&#1090;&#1072;&#1090;&#1091;&#1089; &#1076;&#1086;&#1082;&#1091;&#1084;&#1077;&#1085;&#1090;&#1072; &#1085;&#1072; "&#1055;&#1088;&#1086;&#1074;&#1077;&#1076;&#1077;&#1085;&#1086;"</text><rect fill="#F1F1F1" height="33.9688" rx="12.5" ry="12.5" style="stroke:#181818;stroke-width:0.5;" width="217.4316" x="347.6631" y="988.4248"/><text fill="#000000" font-family="sans-serif" font-size="12" lengthAdjust="spacing" textLength="197.4316" x="357.6631" y="1009.5635">&#1060;&#1110;&#1082;&#1089;&#1091;&#1108; &#1076;&#1072;&#1090;&#1091; &#1090;&#1072; &#1095;&#1072;&#1089; &#1087;&#1088;&#1086;&#1074;&#1077;&#1076;&#1077;&#1085;&#1085;&#1103;</text><rect fill="#F1F1F1" height="33.9688" rx="12.5" ry="12.5" style="stroke:#181818;stroke-width:0.5;" width="314.8203" x="298.9688" y="1042.3936"/><text fill="#000000" font-family="sans-serif" font-size="12" lengthAdjust="spacing" textLength="294.8203" x="308.9688" y="1063.5322">&#1060;&#1086;&#1088;&#1084;&#1091;&#1108; &#1088;&#1077;&#1079;&#1091;&#1083;&#1100;&#1090;&#1072;&#1090; &#1087;&#1088;&#1086;&#1074;&#1077;&#1076;&#1077;&#1085;&#1085;&#1103; &#1079; &#1089;&#1090;&#1072;&#1090;&#1091;&#1089;&#1086;&#1084; 200</text><line style="stroke:#000000;stroke-width:1.5;" x1="292.9688" x2="292.9688" y1="50.042" y2="1226.2998"/><line style="stroke:#000000;stroke-width:1.5;" x1="617.7891" x2="617.7891" y1="50.042" y2="1226.2998"/><line style="stroke:#181818;stroke-width:1;" x1="154.9844" x2="154.9844" y1="95.9951" y2="115.9951"/><polygon fill="#181818" points="150.9844,105.9951,154.9844,115.9951,158.9844,105.9951,154.9844,109.9951" style="stroke:#181818;stroke-width:1;"/><line style="stroke:#181818;stroke-width:1;" x1="154.9844" x2="154.9844" y1="149.9639" y2="169.9639"/><polygon fill="#181818" points="150.9844,159.9639,154.9844,169.9639,158.9844,159.9639,154.9844,163.9639" style="stroke:#181818;stroke-width:1;"/><line style="stroke:#181818;stroke-width:1;" x1="154.9844" x2="154.9844" y1="203.9326" y2="223.9326"/><polygon fill="#181818" points="150.9844,213.9326,154.9844,223.9326,158.9844,213.9326,154.9844,217.9326" style="stroke:#181818;stroke-width:1;"/><line style="stroke:#181818;stroke-width:1;" x1="154.9844" x2="154.9844" y1="468.21" y2="488.21"/><polygon fill="#181818" points="150.9844,478.21,154.9844,488.21,158.9844,478.21,154.9844,482.21" style="stroke:#181818;stroke-width:1;"/><line style="stroke:#181818;stroke-width:1;" x1="154.9844" x2="154.9844" y1="742.5186" y2="762.5186"/><polygon fill="#181818" points="150.9844,752.5186,154.9844,762.5186,158.9844,752.5186,154.9844,756.5186" style="stroke:#181818;stroke-width:1;"/><line style="stroke:#181818;stroke-width:1;" x1="154.9844" x2="154.9844" y1="1130.3311" y2="1150.3311"/><polygon fill="#181818" points="150.9844,1140.3311,154.9844,1150.3311,158.9844,1140.3311,154.9844,1144.3311" style="stroke:#181818;stroke-width:1;"/><line style="stroke:#181818;stroke-width:1;" x1="154.9844" x2="154.9844" y1="1184.2998" y2="1204.2998"/><polygon fill="#181818" points="150.9844,1194.2998,154.9844,1204.2998,158.9844,1194.2998,154.9844,1198.2998" style="stroke:#181818;stroke-width:1;"/><line style="stroke:#181818;stroke-width:1;" x1="456.3789" x2="456.3789" y1="355.8701" y2="380.2725"/><polygon fill="#181818" points="452.3789,370.2725,456.3789,380.2725,460.3789,370.2725,456.3789,374.2725" style="stroke:#181818;stroke-width:1;"/><line style="stroke:#181818;stroke-width:1;" x1="493.6741" x2="590.1738" y1="343.8701" y2="343.8701"/><polygon fill="#181818" points="586.1738,432.2412,590.1738,442.2412,594.1738,432.2412,590.1738,436.2412" style="stroke:#181818;stroke-width:1;"/><line style="stroke:#181818;stroke-width:1;" x1="590.1738" x2="590.1738" y1="343.8701" y2="532.21"/><line style="stroke:#181818;stroke-width:1;" x1="590.1738" x2="456.3789" y1="532.21" y2="532.21"/><line style="stroke:#181818;stroke-width:1;" x1="456.3789" x2="456.3789" y1="532.21" y2="552.21"/><polygon fill="#181818" points="452.3789,542.21,456.3789,552.21,460.3789,542.21,456.3789,546.21" style="stroke:#181818;stroke-width:1;"/><line style="stroke:#181818;stroke-width:1;" x1="456.3789" x2="456.3789" y1="311.8701" y2="331.8701"/><polygon fill="#181818" points="452.3789,321.8701,456.3789,331.8701,460.3789,321.8701,456.3789,325.8701" style="stroke:#181818;stroke-width:1;"/><line style="stroke:#181818;stroke-width:1;" x1="456.3789" x2="456.3789" y1="630.1787" y2="654.5811"/><polygon fill="#181818" points="452.3789,644.5811,456.3789,654.5811,460.3789,644.5811,456.3789,648.5811" style="stroke:#181818;stroke-width:1;"/><line style="stroke:#181818;stroke-width:1;" x1="530.3291" x2="588.3252" y1="618.1787" y2="618.1787"/><polygon fill="#181818" points="584.3252,706.5498,588.3252,716.5498,592.3252,706.5498,588.3252,710.5498" style="stroke:#181818;stroke-width:1;"/><line style="stroke:#181818;stroke-width:1;" x1="588.3252" x2="588.3252" y1="618.1787" y2="806.5186"/><line style="stroke:#181818;stroke-width:1;" x1="588.3252" x2="456.3789" y1="806.5186" y2="806.5186"/><line style="stroke:#181818;stroke-width:1;" x1="456.3789" x2="456.3789" y1="806.5186" y2="826.5186"/><polygon fill="#181818" points="452.3789,816.5186,456.3789,826.5186,460.3789,816.5186,456.3789,820.5186" style="stroke:#181818;stroke-width:1;"/><line style="stroke:#181818;stroke-width:1;" x1="456.3789" x2="456.3789" y1="586.1787" y2="606.1787"/><polygon fill="#181818" points="452.3789,596.1787,456.3789,606.1787,460.3789,596.1787,456.3789,600.1787" style="stroke:#181818;stroke-width:1;"/><line style="stroke:#181818;stroke-width:1;" x1="456.3789" x2="456.3789" y1="860.4873" y2="880.4873"/><polygon fill="#181818" points="452.3789,870.4873,456.3789,880.4873,460.3789,870.4873,456.3789,874.4873" style="stroke:#181818;stroke-width:1;"/><line style="stroke:#181818;stroke-width:1;" x1="456.3789" x2="456.3789" y1="914.4561" y2="934.4561"/><polygon fill="#181818" points="452.3789,924.4561,456.3789,934.4561,460.3789,924.4561,456.3789,928.4561" style="stroke:#181818;stroke-width:1;"/><line style="stroke:#181818;stroke-width:1;" x1="456.3789" x2="456.3789" y1="968.4248" y2="988.4248"/><polygon fill="#181818" points="452.3789,978.4248,456.3789,988.4248,460.3789,978.4248,456.3789,982.4248" style="stroke:#181818;stroke-width:1;"/><line style="stroke:#181818;stroke-width:1;" x1="456.3789" x2="456.3789" y1="1022.3936" y2="1042.3936"/><polygon fill="#181818" points="452.3789,1032.3936,456.3789,1042.3936,460.3789,1032.3936,456.3789,1036.3936" style="stroke:#181818;stroke-width:1;"/><line style="stroke:#181818;stroke-width:1;" x1="154.9844" x2="154.9844" y1="257.9014" y2="262.9014"/><line style="stroke:#181818;stroke-width:1;" x1="154.9844" x2="456.3789" y1="262.9014" y2="262.9014"/><line style="stroke:#181818;stroke-width:1;" x1="456.3789" x2="456.3789" y1="262.9014" y2="277.9014"/><polygon fill="#181818" points="452.3789,267.9014,456.3789,277.9014,460.3789,267.9014,456.3789,271.9014" style="stroke:#181818;stroke-width:1;"/><line style="stroke:#181818;stroke-width:1;" x1="456.3789" x2="456.3789" y1="414.2412" y2="419.2412"/><line style="stroke:#181818;stroke-width:1;" x1="456.3789" x2="154.9844" y1="419.2412" y2="419.2412"/><line style="stroke:#181818;stroke-width:1;" x1="154.9844" x2="154.9844" y1="419.2412" y2="434.2412"/><polygon fill="#181818" points="150.9844,424.2412,154.9844,434.2412,158.9844,424.2412,154.9844,428.2412" style="stroke:#181818;stroke-width:1;"/><line style="stroke:#181818;stroke-width:1;" x1="456.3789" x2="456.3789" y1="688.5498" y2="693.5498"/><line style="stroke:#181818;stroke-width:1;" x1="456.3789" x2="154.9844" y1="693.5498" y2="693.5498"/><line style="stroke:#181818;stroke-width:1;" x1="154.9844" x2="154.9844" y1="693.5498" y2="708.5498"/><polygon fill="#181818" points="150.9844,698.5498,154.9844,708.5498,158.9844,698.5498,154.9844,702.5498" style="stroke:#181818;stroke-width:1;"/><line style="stroke:#181818;stroke-width:1;" x1="456.3789" x2="456.3789" y1="1076.3623" y2="1081.3623"/><line style="stroke:#181818;stroke-width:1;" x1="456.3789" x2="154.9844" y1="1081.3623" y2="1081.3623"/><line style="stroke:#181818;stroke-width:1;" x1="154.9844" x2="154.9844" y1="1081.3623" y2="1096.3623"/><polygon fill="#181818" points="150.9844,1086.3623,154.9844,1096.3623,158.9844,1086.3623,154.9844,1090.3623" style="stroke:#181818;stroke-width:1;"/><text fill="#000000" font-family="sans-serif" font-size="18" lengthAdjust="spacing" textLength="132.3369" x="87.8159" y="66.75">&#1042;&#1077;&#1073;&#1110;&#1085;&#1090;&#1077;&#1088;&#1092;&#1077;&#1081;&#1089;</text><text fill="#000000" font-family="sans-serif" font-size="18" lengthAdjust="spacing" textLength="141.583" x="384.5874" y="66.75">&#1041;&#1077;&#1082;&#1077;&#1085;&#1076;-&#1089;&#1077;&#1088;&#1074;&#1077;&#1088;</text><!--SRC=[hLJBQjjG4DthAovUsGk3QBEA5_cMGXHg24cejVJ2ibBSGcXe22g4F6WfMIj6JbJPadvXvezwPgwk7qqQI9k5aJMFC-USkRfXFzmF3DtmY2gQqemo_4eg-TJWRqK5nxIG48yfDLJJ39KpMd32dvUL757U0EG8vPutf3DaxpZHHlJmCTv_SJJq1k6x3w6tJHTKeIVdYCUOCQMK9uQcwCWm50aDdGjsBLN2fOUsAqJ76YWqZqU9N2rCJMibH70fRmdboj03fHQ6Om4vqp4rQbFK5gBCLO2C0M8gWqMhG8rwekWh51IgEUkk9uS0l6by0NzeFHLU3ZrL8nkPjSpt-dkchKnjdiztEYPy7nmWMdBIyOmHH2jZ9COh7W8Bs39NfLl-snxgdl7PWK0TFN3i8Ap30ZLVRLguLd-C4FX1U7Za1Vk3mBI51XKTBpZOxU_zWntYxnp-Va9JldIuG2obZ9DkGyovXbCap9rPtrRTA9ikBTN3KF89LI-t43Dc3SQ44zFUyltEwtkwFkI_FFtk3h1C_K6NT0jJmNlDnVYlBcxJjGPpw8enjb3Mwr2R2-aYd-dyU_TnMf1IFPtp5_qqxGA04prvMmXcwz7TKhK4wYU85avEPc6Cjl44Rr5ZuEQTf8rwRooqKGyP5W529vRBasqmQeEihCgyyVtUinVLIrUjo3LE_CV7Leb2EPZM4zcoRWWHS90JyHi0]--></g></svg>